<?xml version="1.0" standalone="no"?>
<!DOCTYPE svg PUBLIC "-//W3C//DTD SVG 20010904//EN"
 "http://www.w3.org/TR/2001/REC-SVG-20010904/DTD/svg10.dtd">
<svg version="1.0" xmlns="http://www.w3.org/2000/svg"
 width="144.000000pt" height="144.000000pt" viewBox="0 0 144.000000 144.000000"
 preserveAspectRatio="xMidYMid meet">
<metadata>
Created by potrace 1.14, written by Peter Selinger 2001-2017
</metadata>
<g transform="translate(0.000000,144.000000) scale(0.100000,-0.100000)"
fill="#000000" stroke="none">
<path d="M480 1210 l0 -230 240 0 240 0 0 230 0 229 -240 0 -240 1 0 -230z"/>
<path d="M10 485 l0 -485 475 0 475 0 0 235 0 235 -238 0 c-172 0 -241 3 -250
12 -9 9 -12 78 -12 250 l0 238 -225 0 -225 0 0 -485z"/>
<path d="M979 966 c-2 -2 -3 -113 -1 -245 l3 -241 229 0 230 0 0 245 0 245
-228 0 c-126 0 -231 -2 -233 -4z"/>
</g>
</svg>
